<?xml version="1.0" encoding="UTF-8"?>
<svg version="1.1" xmlns="http://www.w3.org/2000/svg" width="500" height="500">
<path d="M0 0 C0.9149826 -0.00012085 1.82996521 -0.0002417 2.77267456 -0.00036621 C18.72893853 0.0294907 34.06367067 1.2791958 49.75 4.375 C50.54970215 4.52453125 51.3494043 4.6740625 52.17333984 4.828125 C84.96780891 11.0788246 117.69691801 25.95475186 144.75 45.375 C145.7709375 46.10203125 146.791875 46.8290625 147.84375 47.578125 C166.77223657 61.42580728 184.60071753 77.7038085 198.48779297 96.6640625 C199.79159958 98.43138875 201.12859038 100.16939123 202.47265625 101.90625 C234.99418926 144.38861163 250.95435838 198.00279955 251 251.125 C251.00067474 251.84121521 251.00134949 252.55743042 251.00204468 253.29534912 C250.92533919 305.07226942 234.32835711 357.11326794 202.75 398.375 C202.31864746 398.94766602 201.88729492 399.52033203 201.44287109 400.11035156 C194.71786551 409.02300957 187.49218169 417.33446834 179.75 425.375 C179.24823242 425.89868164 178.74646484 426.42236328 178.22949219 426.96191406 C162.94836344 442.83266836 144.97660739 456.58875835 125.75 467.375 C124.96625 467.81666504 124.1825 468.25833008 123.375 468.71337891 C85.2748627 489.93918084 44.52692807 500.59447113 1 500.625 C0.1335083 500.62567474 -0.7329834 500.62634949 -1.62573242 500.62704468 C-15.37939194 500.61006994 -28.70810653 499.94621356 -42.25 497.375 C-43.17022949 497.20871094 -44.09045898 497.04242188 -45.03857422 496.87109375 C-83.34229864 489.8177225 -119.20363011 473.83617725 -150.25 450.375 C-151.1884375 449.66859375 -152.126875 448.9621875 -153.09375 448.234375 C-167.35467705 437.13251407 -182.34940292 423.81776369 -192.953125 409.109375 C-194.18640776 407.36640919 -194.18640776 407.36640919 -195.64770508 406.01220703 C-237.02049758 363.73795036 -249.99205725 296.16599643 -249.4609375 239.49609375 C-248.63613756 180.76605993 -223.26205483 122.4048377 -182.80859375 80.109375 C-180.25257827 77.45106417 -180.25257827 77.45106417 -178.140625 74.72265625 C-176.40062295 72.56203386 -174.67526852 70.84750149 -172.5625 69.0625 C-171.87671875 68.4746875 -171.1909375 67.886875 -170.484375 67.28125 C-169.74703125 66.6521875 -169.0096875 66.023125 -168.25 65.375 C-166.59968315 63.94264952 -164.95380126 62.50517245 -163.3125 61.0625 C-162.56097656 60.40636719 -161.80945313 59.75023437 -161.03515625 59.07421875 C-159.16375803 57.48545152 -159.16375803 57.48545152 -158.25 55.375 C-156.67526084 54.50014491 -155.09940341 53.62726989 -153.51953125 52.76171875 C-150.73480468 51.06020768 -148.21122069 49.11519102 -145.625 47.125 C-139.97716918 42.84019766 -134.18622929 39.0171719 -128.06640625 35.44042969 C-126.82470254 34.71209703 -125.5879042 33.97535352 -124.35546875 33.23144531 C-86.93280021 10.70034162 -43.4740865 -0.08873168 0 0 Z " fill="#0C6E4F" transform="translate(249.25,-0.375)"/>
<path d="M0 0 C4.86379061 3.95683148 8.22976588 8.09247299 9.0940609 14.48368645 C9.19081727 16.69004789 9.19570674 18.87741773 9.16479492 21.08569336 C9.16515653 21.92907289 9.16551813 22.77245241 9.16589069 23.64138889 C9.16366582 26.34971587 9.14088649 29.05740999 9.1171875 31.765625 C9.11277221 33.44632672 9.10971441 35.12703258 9.10803223 36.80773926 C9.09235496 43.01381649 9.05047109 49.2198052 9.01171875 55.42578125 C8.94984375 69.30640625 8.88796875 83.18703125 8.82421875 97.48828125 C50.07421875 97.15828125 91.32421875 96.82828125 133.82421875 96.48828125 C133.95508999 68.87508092 133.95508999 68.87508092 134.03198242 41.26171875 C134.07287598 35.90234375 134.07287598 35.90234375 134.0983429 33.38769531 C134.11136004 31.64392433 134.11469541 29.90006373 134.11018372 28.15625 C134.10524659 25.50318971 134.13172548 22.85204292 134.16479492 20.19921875 C134.15617274 19.43169281 134.14755056 18.66416687 134.13866711 17.87338257 C134.28197747 11.07800743 137.15253101 6.42034534 141.66796875 1.46484375 C148.22850799 -3.88880384 153.3326104 -5.3179664 161.82421875 -4.51171875 C168.28546263 -3.21711615 173.62223214 0.45707777 177.82421875 5.48828125 C180.66433812 10.98846435 181.25578312 15.30858163 181.20516968 21.44519043 C181.20984965 22.3241962 181.21452962 23.20320197 181.21935141 24.10884428 C181.23127803 27.04211926 181.22185326 29.97492502 181.21240234 32.90820312 C181.21646908 35.01608044 181.22181153 37.12395563 181.22833252 39.23182678 C181.24199975 44.94869535 181.23670983 50.66540134 181.22719526 56.38227272 C181.21959566 62.36744243 181.22664512 68.3525983 181.23135376 74.33776855 C181.23681042 84.38845313 181.22962201 94.43907156 181.21533203 104.48974609 C181.19900574 116.10673623 181.2042943 127.72356841 181.22081125 139.34055471 C181.23442862 149.31780648 181.23634453 159.29501072 181.22849524 169.27226877 C181.22382013 175.22987361 181.22318949 181.18740422 181.23310471 187.14500427 C181.24177568 192.74616827 181.23574985 198.34712876 181.21842194 203.9482708 C181.21445783 206.00295613 181.21558983 208.05765862 181.22220993 210.11233711 C181.23041836 212.9189127 181.22011213 215.72483782 181.20516968 218.53137207 C181.21186184 219.34276123 181.21855401 220.15415038 181.22544897 220.99012709 C181.14762066 228.53644911 178.74489055 234.30777565 173.609375 239.91015625 C168.04569708 244.82859362 161.7541514 246.18878034 154.4609375 245.86328125 C147.1684668 244.82612986 142.9456146 241.05586755 138.26953125 235.5859375 C134.83947119 230.6077152 134.54252147 226.02831458 134.59716797 220.11791992 C134.5969269 219.27478147 134.59668583 218.43164301 134.59643745 217.5629549 C134.59792574 214.84394452 134.61313623 212.1252111 134.62890625 209.40625 C134.63184819 207.72351208 134.6338877 206.04077234 134.63500977 204.35803223 C134.64547963 198.13058726 134.67340214 191.90318151 134.69921875 185.67578125 C134.74046875 171.75390625 134.78171875 157.83203125 134.82421875 143.48828125 C93.57421875 143.81828125 52.32421875 144.14828125 9.82421875 144.48828125 C9.65380748 171.77235689 9.65380748 171.77235689 9.52636719 199.05664062 C9.48095703 204.35253906 9.48095703 204.35253906 9.45465088 206.83752441 C9.44010689 208.56046037 9.43326805 210.28347249 9.43267822 212.00646973 C9.4302465 214.62786416 9.40280155 217.24797099 9.37011719 219.86914062 C9.37514126 220.6272982 9.38016533 221.38545578 9.38534164 222.16658783 C9.2624198 228.49832578 7.24371594 233.61759577 3.1484375 238.4765625 C-3.27733622 243.67545818 -9.03053521 246.16244539 -17.3984375 245.8984375 C-24.47324409 244.85363484 -29.47669152 240.75928478 -33.984375 235.4296875 C-37.28820451 230.04607023 -37.46646101 224.76712258 -37.44320679 218.65835571 C-37.4477379 217.78090993 -37.45226901 216.90346415 -37.45693743 215.99942911 C-37.46957626 213.06548351 -37.46796139 210.13172367 -37.46630859 207.19775391 C-37.47229412 205.09164695 -37.47909972 202.98554219 -37.48666382 200.87944031 C-37.50432747 195.16248689 -37.50901933 189.44559335 -37.51029539 183.72861528 C-37.51171721 180.15620202 -37.51598738 176.58380398 -37.52128983 173.0113945 C-37.53979053 160.546649 -37.54796029 148.08194627 -37.54638672 135.6171875 C-37.54518496 124.00078253 -37.56629413 112.38456326 -37.59787405 100.76820529 C-37.62402852 90.79181215 -37.63475438 80.81547971 -37.6334759 70.83905256 C-37.63296607 64.88191981 -37.6386611 58.92495213 -37.659832 52.96785355 C-37.67920053 47.36502949 -37.67934812 41.76252823 -37.66479874 36.15969276 C-37.66270791 34.10542008 -37.66742777 32.05112727 -37.67951965 29.99688911 C-37.69497912 27.1882722 -37.68565928 24.38076741 -37.67025757 21.57217407 C-37.68054469 20.76301564 -37.69083182 19.9538572 -37.70143068 19.12017882 C-37.62091239 12.45678677 -35.5893665 7.34477183 -31.28125 2.24609375 C-21.84215064 -5.78963646 -10.35627755 -7.19547471 0 0 Z " fill="#EBEEBC" transform="translate(178.17578125,129.51171875)"/>
<path d="M0 0 C4.52998288 4.52998288 5.22342075 7.86404493 5.26748681 14.24465364 C5.26302537 15.0625506 5.25856392 15.88044756 5.25396729 16.72312927 C5.25708727 17.60113176 5.26020725 18.47913425 5.26342177 19.38374287 C5.27139836 22.32547697 5.26507938 25.2670046 5.25878906 28.20874023 C5.26149909 30.31794353 5.26506009 32.42714588 5.26940918 34.53634644 C5.27853456 40.2656329 5.27498813 45.99484742 5.26865101 51.72413516 C5.26359115 57.71778989 5.26828249 63.71143842 5.27142334 69.70509338 C5.2750633 79.77191271 5.27026338 89.8387027 5.26074219 99.90551758 C5.24986055 111.54517737 5.253381 123.18476708 5.264395 134.82442516 C5.27347053 144.81520133 5.27475175 154.80595639 5.26951766 164.79673535 C5.26639905 170.76494277 5.2659856 176.73311725 5.27259064 182.70132256 C5.27836719 188.31308523 5.27436142 193.92475756 5.26280212 199.53651047 C5.26015709 201.59645373 5.26091796 203.65640459 5.26532745 205.71634483 C5.27079049 208.52762831 5.2639394 211.33862207 5.25396729 214.14988708 C5.25842873 214.96555332 5.26289017 215.78121956 5.26748681 216.62160295 C5.23640308 221.13795805 4.71151457 224.74460417 3 229 C1.74782078 225.24346235 2.42225357 222.91337721 3 219 C3.14143675 216.07414838 3.13101511 213.15259226 3.12025452 210.22377014 C3.12110894 209.36432672 3.12196337 208.50488331 3.12284368 207.61939615 C3.12448475 204.75283438 3.11899967 201.88633173 3.11352539 199.01977539 C3.1132432 196.95965578 3.11340188 194.89953606 3.1139679 192.8394165 C3.11425461 187.25528954 3.10837815 181.67118409 3.10139394 176.08706212 C3.09513952 170.24810092 3.09455495 164.40913921 3.09336853 158.57017517 C3.09026138 147.51708014 3.08205628 136.46399502 3.07201904 125.41090435 C3.06083879 112.8257349 3.05534263 100.24056499 3.05032361 87.65539181 C3.03987317 61.77025572 3.02228564 35.88512842 3 10 C2.01 9.67 1.02 9.34 0 9 C0 6.03 0 3.06 0 0 Z " fill="#DBF4C4" transform="translate(354,134)"/>
<path d="M0 0 C0.33 0 0.66 0 1 0 C1.09284791 10.6836153 1.16384004 21.36713395 1.20724869 32.05107117 C1.22808703 37.01254571 1.25633595 41.97374337 1.30175781 46.93505859 C1.34534963 51.72669176 1.36916532 56.51805927 1.37950897 61.30987549 C1.38687645 63.13425882 1.40126339 64.95862829 1.42292023 66.78289795 C1.45213201 69.34646559 1.45594867 71.90894787 1.45410156 74.47265625 C1.47567322 75.59367989 1.47567322 75.59367989 1.49768066 76.73735046 C1.45554414 82.17330908 0.08038565 86.47774854 -3 91 C-3.99 91.495 -3.99 91.495 -5 92 C-4.25 87.25 -4.25 87.25 -2 85 C-0.5825419 77.62910646 -0.89041218 70.15374485 -0.9375 62.67578125 C-0.94191697 61.28346428 -0.94573048 59.89114527 -0.94897461 58.49882507 C-0.96224205 53.36394873 -0.98635699 48.22913466 -1.01037598 43.09429932 C-1.03029877 38.75005102 -1.04586177 34.40582704 -1.05593872 30.06154442 C-1.06230626 28.0495009 -1.07487903 26.03748 -1.08764648 24.02546692 C-1.10886284 15.96774699 -0.74991933 8.02311176 0 0 Z " fill="#E0F1BF" transform="translate(186,275)"/>
<path d="M0 0 C0.99 0.33 1.98 0.66 3 1 C0.90176742 3.25365722 -0.96754236 4.98067998 -3.625 6.5625 C-6.25743604 7.92617739 -6.25743604 7.92617739 -8 11 C-8.39387788 13.32387947 -8.73486085 15.65793749 -9 18 C-9.33 18 -9.66 18 -10 18 C-10.33 45.06 -10.66 72.12 -11 100 C-11.33 100 -11.66 100 -12 100 C-12.11604152 88.92527134 -12.20479039 77.85068821 -12.25906086 66.77547455 C-12.28511304 61.63232389 -12.32043112 56.48959033 -12.37719727 51.34667969 C-12.43167316 46.37996848 -12.46145347 41.41365753 -12.47438622 36.44667053 C-12.48359816 34.55527957 -12.50158716 32.66390959 -12.52865028 30.77268982 C-12.56514837 28.11556304 -12.5699368 25.46007299 -12.56762695 22.80273438 C-12.58560333 22.02733307 -12.60357971 21.25193176 -12.62210083 20.45303345 C-12.55736337 13.53395092 -9.63636151 8.93227964 -5.0859375 3.87109375 C-4.52132813 3.39800781 -3.95671875 2.92492187 -3.375 2.4375 C-2.52035156 1.69306641 -2.52035156 1.69306641 -1.6484375 0.93359375 C-1.10445313 0.62550781 -0.56046875 0.31742187 0 0 Z " fill="#DDF6C2" transform="translate(325,127)"/>
<path d="M0 0 C14.51732447 -0.88881578 28.70268184 1.74906663 43 4 C43 4.33 43 4.66 43 5 C13.96774194 3.48387097 13.96774194 3.48387097 11 2 C9.12943209 1.7724985 7.25314042 1.59037189 5.375 1.4375 C4.37210937 1.35371094 3.36921875 1.26992188 2.3359375 1.18359375 C1.56507813 1.12300781 0.79421875 1.06242188 0 1 C0 0.67 0 0.34 0 0 Z " fill="#468E77" transform="translate(256,0)"/>
<path d="M0 0 C0.66 0.33 1.32 0.66 2 1 C2 1.66 2 2.32 2 3 C2.66 3 3.32 3 4 3 C4.4125 3.763125 4.825 4.52625 5.25 5.3125 C7.47632837 8.73150428 9.23272765 9.46872995 13 11 C15.6879236 11.35567474 18.18517772 11.59627541 20.875 11.6875 C21.56335938 11.72166016 22.25171875 11.75582031 22.9609375 11.79101562 C24.64008613 11.87264091 26.32001168 11.9380157 28 12 C23.48994436 15.00670376 19.28402239 14.67907115 14 14 C7.4175265 11.70688326 3.0665682 7.53372221 -1 2 C-0.67 1.34 -0.34 0.68 0 0 Z " fill="#C7E6BB" transform="translate(144,361)"/>
<path d="M0 0 C0.33 0.66 0.66 1.32 1 2 C-0.33346989 5.86706268 -3.08740795 8.23303756 -6 11 C-7.18768273 12.18768273 -8.36073562 13.39079692 -9.5 14.625 C-11 16 -11 16 -13 16 C-11.38826594 12.4842485 -9.31341763 9.45204806 -7.0625 6.3125 C-6.37285156 5.33925781 -5.68320312 4.36601563 -4.97265625 3.36328125 C-3 1 -3 1 0 0 Z " fill="#2B775F" transform="translate(59,90)"/>
<path d="M0 0 C0.33 0 0.66 0 1 0 C1.05827558 3.5624308 1.09368885 7.12473819 1.125 10.6875 C1.14175781 11.69490234 1.15851563 12.70230469 1.17578125 13.74023438 C1.18222656 14.71669922 1.18867187 15.69316406 1.1953125 16.69921875 C1.20578613 17.59471436 1.21625977 18.49020996 1.22705078 19.4128418 C0.97703456 22.26168257 0.18016512 24.40894543 -1 27 C-1.33 27 -1.66 27 -2 27 C-1.85785272 23.99978513 -1.71138304 20.99988211 -1.5625 18 C-1.52318359 17.16082031 -1.48386719 16.32164062 -1.44335938 15.45703125 C-1.18148668 10.25986542 -0.7100648 5.15542847 0 0 Z " fill="#3B826C" transform="translate(2,211)"/>
<path d="M0 0 C0.99 0.33 1.98 0.66 3 1 C0.90176742 3.25365722 -0.96754236 4.98067998 -3.625 6.5625 C-6.25743604 7.92617739 -6.25743604 7.92617739 -8 11 C-8.39387788 13.32387947 -8.73486085 15.65793749 -9 18 C-9.99 17.34 -10.98 16.68 -12 16 C-10.43900511 9.06224493 -5.8184277 3.8789518 0 0 Z " fill="#DAEFC3" transform="translate(325,127)"/>
<path d="M0 0 C0.33 0.66 0.66 1.32 1 2 C0.06558465 3.27310312 -0.87267111 4.543388 -1.8125 5.8125 C-2.59560547 6.87404297 -2.59560547 6.87404297 -3.39453125 7.95703125 C-6.41048618 11.79485224 -6.41048618 11.79485224 -8 13 C-10.1875 12.6875 -10.1875 12.6875 -12 12 C-8 8 -4 4 0 0 Z " fill="#327761" transform="translate(75,71)"/>
<path d="M0 0 C0.66 0.66 1.32 1.32 2 2 C1.21496094 1.97679688 0.42992187 1.95359375 -0.37890625 1.9296875 C-8.39174842 1.79204359 -14.56421665 1.75602838 -21 7 C-21.66 7 -22.32 7 -23 7 C-23 6.01 -23 5.02 -23 4 C-15.45362639 0.18422644 -8.44443467 -1.05555433 0 0 Z " fill="#2D744A" transform="translate(170,124)"/>
<path d="M0 0 C2.54250021 0.11474466 5.08347338 0.2414697 7.625 0.375 C8.33785156 0.4059375 9.05070312 0.436875 9.78515625 0.46875 C14.17152608 0.71020155 17.8594834 1.39342731 22 3 C21.34 3.66 20.68 4.32 20 5 C19.05125 4.67 18.1025 4.34 17.125 4 C10.35848896 2.07847557 3.50336379 2.26174156 -3 5 C-3 4.34 -3 3.68 -3 3 C-2.34 3 -1.68 3 -1 3 C-0.67 2.01 -0.34 1.02 0 0 Z " fill="#25724B" transform="translate(327,123)"/>
<path d="M0 0 C2.9648522 2.9648522 3.97312009 4.06362703 5 8 C4.86736097 11.03539309 4.48333879 14.00199318 4 17 C3.67 17 3.34 17 3 17 C3 14.69 3 12.38 3 10 C2.01 9.67 1.02 9.34 0 9 C0 6.03 0 3.06 0 0 Z " fill="#D1E8B8" transform="translate(354,134)"/>
<path d="M0 0 C0.99 0 1.98 0 3 0 C3.33 0.66 3.66 1.32 4 2 C6.13105487 2.41751279 8.28208837 2.73559025 10.4375 3 C16.77972466 3.77972466 16.77972466 3.77972466 19 6 C11.42228293 6.50146657 6.54216759 5.94998798 0 2 C0 1.34 0 0.68 0 0 Z " fill="#C4E3BA" transform="translate(322,369)"/>
<path d="M0 0 C2.64 0.66 5.28 1.32 8 2 C8 2.66 8 3.32 8 4 C5.79189025 5.8588679 3.3918738 7.37694278 1 9 C0.67 6.03 0.34 3.06 0 0 Z " fill="#1D7157" transform="translate(409,433)"/>
<path d="M0 0 C2.31 0.33 4.62 0.66 7 1 C7 1.66 7 2.32 7 3 C3.14243493 5.15305957 0.44870215 6.39253254 -4 6 C-2.68 4.02 -1.36 2.04 0 0 Z " fill="#DCECBE" transform="translate(343,368)"/>
<path d="M0 0 C4.455 0.99 4.455 0.99 9 2 C8.67 3.65 8.34 5.3 8 7 C5.05043472 5.63055898 2.47531189 4.12169591 0 2 C0 1.34 0 0.68 0 0 Z " fill="#24745B" transform="translate(98,447)"/>
<path d="M0 0 C2 3 2 3 1.9375 4.9375 C0.61848701 7.83932859 -1.44878816 9.16836073 -4 11 C-4.66 10.67 -5.32 10.34 -6 10 C-4.02 6.7 -2.04 3.4 0 0 Z " fill="#307E67" transform="translate(43,108)"/>
<path d="M0 0 C1.3303125 0.2475 1.3303125 0.2475 2.6875 0.5 C5.53596892 0.92995757 8.13004802 1.08441035 11 1 C7.99559979 3.00293347 6.29006055 3.49271626 2.8125 4.125 C1.91144531 4.29257812 1.01039063 4.46015625 0.08203125 4.6328125 C-0.60503906 4.75398438 -1.29210937 4.87515625 -2 5 C-2.33 4.34 -2.66 3.68 -3 3 C-2.01 3 -1.02 3 0 3 C0 2.01 0 1.02 0 0 Z " fill="#337C65" transform="translate(311,488)"/>
<path d="M0 0 C0.66 0 1.32 0 2 0 C1.71682074 1.60568666 1.42312209 3.20952047 1.125 4.8125 C0.96257812 5.70582031 0.80015625 6.59914063 0.6328125 7.51953125 C0 10 0 10 -2 13 C-2.91058531 9.92677456 -3.08886184 7.19902639 -3 4 C-2.34 4 -1.68 4 -1 4 C-0.67 2.68 -0.34 1.36 0 0 Z " fill="#38836C" transform="translate(489,316)"/>
<path d="M0 0 C0.66 0 1.32 0 2 0 C0.44298069 4.67105792 -2.08447373 8.08705685 -5 12 C-6 9 -6 9 -5.22265625 7.17578125 C-4.1484375 5.45052083 -3.07421875 3.72526042 -2 2 C-1.34 2 -0.68 2 0 2 C0 1.34 0 0.68 0 0 Z " fill="#40816C" transform="translate(460,382)"/>
<path d="M0 0 C-1.2125738 3.72433382 -2.50859979 7.37802806 -4 11 C-4.33 11 -4.66 11 -5 11 C-6.3403676 4.66371681 -6.3403676 4.66371681 -4.75 1.5625 C-3 0 -3 0 0 0 Z " fill="#327C65" transform="translate(480,348)"/>
<path d="M0 0 C0.66 0.33 1.32 0.66 2 1 C2.2954439 6.02254631 1.98514628 8.89542386 -1 13 C-2.07310858 9.72814447 -1.89263102 7.57052408 -1.0625 4.25 C-0.86785156 3.45078125 -0.67320312 2.6515625 -0.47265625 1.828125 C-0.31667969 1.22484375 -0.16070312 0.6215625 0 0 Z " fill="#41836D" transform="translate(5,196)"/>
<path d="M0 0 C3.42931954 3.7559214 4.56429083 8.23466745 6 13 C5.01 12.34 4.02 11.68 3 11 C3 10.34 3 9.68 3 9 C2.34 9 1.68 9 1 9 C0.67 6.03 0.34 3.06 0 0 Z " fill="#347B65" transform="translate(474,140)"/>
<path d="M0 0 C0 3.99191204 -1.25498212 5.18079244 -4 8 C-6.75 8.8125 -6.75 8.8125 -9 9 C-9.33 8.34 -9.66 7.68 -10 7 C-9.44570313 6.66226562 -8.89140625 6.32453125 -8.3203125 5.9765625 C-7.59585937 5.53054688 -6.87140625 5.08453125 -6.125 4.625 C-5.04605469 3.96371094 -5.04605469 3.96371094 -3.9453125 3.2890625 C-1.88206418 2.0146287 -1.88206418 2.0146287 0 0 Z " fill="#216F4A" transform="translate(354,366)"/>
<path d="M0 0 C0.33 0.99 0.66 1.98 1 3 C0.01 3.33 -0.98 3.66 -2 4 C-2.73323796 6.01508358 -2.73323796 6.01508358 -3 8 C-5.31 8.33 -7.62 8.66 -10 9 C-9.278125 8.443125 -8.55625 7.88625 -7.8125 7.3125 C-5.02542701 5.02090666 -2.51358472 2.58540143 0 0 Z " fill="#246E48" transform="translate(184,364)"/>
<path d="M0 0 C4.95696581 1.23924145 7.11658466 2.78577758 10 7 C9.01 7 8.02 7 7 7 C7 6.34 7 5.68 7 5 C6.21625 4.9175 5.4325 4.835 4.625 4.75 C2 4 2 4 0.6875 1.9375 C0.460625 1.298125 0.23375 0.65875 0 0 Z " fill="#227259" transform="translate(416,66)"/>
<path d="M0 0 C0 0.99 0 1.98 0 3 C-2.25 4.75 -2.25 4.75 -5 6 C-7.3125 5.6875 -7.3125 5.6875 -9 5 C-3.375 1.125 -3.375 1.125 0 0 Z " fill="#2D765F" transform="translate(105,47)"/>
<path d="M0 0 C1.94268841 2.91403262 3.46395304 5.85808576 5 9 C3.35 8.67 1.7 8.34 0 8 C0 5.36 0 2.72 0 0 Z " fill="#247250" transform="translate(313,358)"/>
<path d="M0 0 C1.31625194 2.63250388 0.74813658 3.80179056 0.0625 6.625 C-0.13214844 7.44226563 -0.32679688 8.25953125 -0.52734375 9.1015625 C-0.68332031 9.72804687 -0.83929688 10.35453125 -1 11 C-1.99 10.34 -2.98 9.68 -4 9 C-2.94124926 5.59687262 -1.99097846 2.98646769 0 0 Z " fill="#CFECBC" transform="translate(317,134)"/>
<path d="M0 0 C0.66 0.33 1.32 0.66 2 1 C0.02 3.97 0.02 3.97 -2 7 C-3.32 6.67 -4.64 6.34 -6 6 C-4.02 4.02 -2.04 2.04 0 0 Z " fill="#387D67" transform="translate(85,61)"/>
<path d="M0 0 C3.91211733 1.15585285 6.8745041 2.35534962 10 5 C6.37673261 6.2077558 5.35853631 5.54311128 2 4 C2 3.34 2 2.68 2 2 C1.34 2 0.68 2 0 2 C0 1.34 0 0.68 0 0 Z " fill="#2E7961" transform="translate(354,23)"/>
<path d="M0 0 C1.32 0.66 2.64 1.32 4 2 C1.64046906 4.35953094 0.22104383 4.49141413 -3 5 C-3.33 4.34 -3.66 3.68 -4 3 C-2.68 2.01 -1.36 1.02 0 0 Z " fill="#2F7A63" transform="translate(350,475)"/>
<path d="M0 0 C0.33 0 0.66 0 1 0 C0.67 2.64 0.34 5.28 0 8 C-0.99 8.33 -1.98 8.66 -3 9 C-2.5020163 5.26512223 -2.12508244 3.18762365 0 0 Z " fill="#2F7D62" transform="translate(36,119)"/>
<path d="M0 0 C0.66 0.33 1.32 0.66 2 1 C0.90931332 4.77545388 0.0916909 7.47043472 -3 10 C-2.67 7.69 -2.34 5.38 -2 3 C-1.34 3 -0.68 3 0 3 C0 2.01 0 1.02 0 0 Z " fill="#357A63" transform="translate(468,367)"/>
<path d="M0 0 C0 0.66 0 1.32 0 2 C-5.41176471 6 -5.41176471 6 -8 6 C-8 5.01 -8 4.02 -8 3 C-2.25 0 -2.25 0 0 0 Z " fill="#1E7049" transform="translate(155,125)"/>
<path d="M0 0 C3.65316671 1.24976756 4.78065836 1.67098753 7 5 C5.68 5.33 4.36 5.66 3 6 C0 2.25 0 2.25 0 0 Z " fill="#3B7E69" transform="translate(395,47)"/>
<path d="M0 0 C2.64 0.99 5.28 1.98 8 3 C7.34 3.66 6.68 4.32 6 5 C4 4.875 4 4.875 2 4 C0.75 1.9375 0.75 1.9375 0 0 Z " fill="#3F816D" transform="translate(344,18)"/>
<path d="M0 0 C2.64 1.98 5.28 3.96 8 6 C6.68 6.33 5.36 6.66 4 7 C0 2.25 0 2.25 0 0 Z " fill="#277048" transform="translate(144,365)"/>
<path d="M0 0 C0.33 0 0.66 0 1 0 C1 2.97 1 5.94 1 9 C-2 5.375 -2 5.375 -2 2 C-1.34 2 -0.68 2 0 2 C0 1.34 0 0.68 0 0 Z " fill="#28765E" transform="translate(22,345)"/>
<path d="M0 0 C0.99 0 1.98 0 3 0 C2.34 1.65 1.68 3.3 1 5 C-0.32 4.67 -1.64 4.34 -3 4 C-1.6875 2 -1.6875 2 0 0 Z " fill="#3E836E" transform="translate(91,55)"/>
<path d="" fill="#FFFFFF" transform="translate(0,0)"/>
<path d="" fill="#FFFFFF" transform="translate(0,0)"/>
<path d="" fill="#FFFFFF" transform="translate(0,0)"/>
<path d="" fill="#FFFFFF" transform="translate(0,0)"/>
<path d="" fill="#FFFFFF" transform="translate(0,0)"/>
<path d="" fill="#FFFFFF" transform="translate(0,0)"/>
<path d="" fill="#FFFFFF" transform="translate(0,0)"/>
<path d="" fill="#FFFFFF" transform="translate(0,0)"/>
<path d="" fill="#FFFFFF" transform="translate(0,0)"/>
<path d="" fill="#FFFFFF" transform="translate(0,0)"/>
<path d="" fill="#FFFFFF" transform="translate(0,0)"/>
<path d="" fill="#FFFFFF" transform="translate(0,0)"/>
<path d="" fill="#FFFFFF" transform="translate(0,0)"/>
<path d="" fill="#FFFFFF" transform="translate(0,0)"/>
<path d="" fill="#FFFFFF" transform="translate(0,0)"/>
<path d="" fill="#FFFFFF" transform="translate(0,0)"/>
<path d="" fill="#FFFFFF" transform="translate(0,0)"/>
<path d="" fill="#FFFFFF" transform="translate(0,0)"/>
<path d="" fill="#FFFFFF" transform="translate(0,0)"/>
<path d="" fill="#FFFFFF" transform="translate(0,0)"/>
<path d="" fill="#FFFFFF" transform="translate(0,0)"/>
<path d="" fill="#FFFFFF" transform="translate(0,0)"/>
</svg>
